<?xml version="1.0" encoding="UTF-8" standalone="no"?><svg xmlns="http://www.w3.org/2000/svg" xmlns:xlink="http://www.w3.org/1999/xlink" clip-rule="evenodd" stroke-miterlimit="10" viewBox="0 0 1024 768"><desc>SVG generated by Keynote</desc><defs></defs><g transform="matrix(1.00, 0.00, -0.00, -1.00, 0.0, 768.0)"><path d="M 0.0 768.0 L 1024.0 768.0 L 1024.0 0.0 L 0.0 0.0 Z M 0.0 768.0 " fill="#FEFFFF"></path><image xlink:href="0A1006B83F032AB8C527BBD36F746829.png" width="2378.00" height="1390.00" transform="matrix(0.41, 0.00, -0.00, -0.41, 24.9, 632.3)"></image><text xml:space="preserve" font-family="Helvetica-Bold,Helvetica" font-weight="bold" font-size="44.8" fill="#000000" transform="matrix(1.00, 0.00, -0.00, -1.00, 382.6, 686.3)">L</text><text xml:space="preserve" font-family="Helvetica-Bold,Helvetica" font-weight="bold" font-size="44.8" fill="#000000" transform="matrix(1.00, 0.00, -0.00, -1.00, 410.0, 686.3)">o</text><text xml:space="preserve" font-family="Helvetica-Bold,Helvetica" font-weight="bold" font-size="44.8" fill="#000000" transform="matrix(1.00, 0.00, -0.00, -1.00, 437.3, 686.3)">g</text><text xml:space="preserve" font-family="Helvetica-Bold,Helvetica" font-weight="bold" font-size="44.8" fill="#000000" transform="matrix(1.00, 0.00, -0.00, -1.00, 464.7, 686.3)"> </text><text xml:space="preserve" font-family="Helvetica-Bold,Helvetica" font-weight="bold" font-size="44.8" fill="#000000" transform="matrix(1.00, 0.00, -0.00, -1.00, 477.1, 686.3)">M</text><text xml:space="preserve" font-family="Helvetica-Bold,Helvetica" font-weight="bold" font-size="44.8" fill="#000000" transform="matrix(1.00, 0.00, -0.00, -1.00, 514.4, 686.3)">o</text><text xml:space="preserve" font-family="Helvetica-Bold,Helvetica" font-weight="bold" font-size="44.8" fill="#000000" transform="matrix(1.00, 0.00, -0.00, -1.00, 541.8, 686.3)">n</text><text xml:space="preserve" font-family="Helvetica-Bold,Helvetica" font-weight="bold" font-size="44.8" fill="#000000" transform="matrix(1.00, 0.00, -0.00, -1.00, 569.2, 686.3)">i</text><text xml:space="preserve" font-family="Helvetica-Bold,Helvetica" font-weight="bold" font-size="44.8" fill="#000000" transform="matrix(1.00, 0.00, -0.00, -1.00, 581.6, 686.3)">t</text><text xml:space="preserve" font-family="Helvetica-Bold,Helvetica" font-weight="bold" font-size="44.8" fill="#000000" transform="matrix(1.00, 0.00, -0.00, -1.00, 596.5, 686.3)">o</text><text xml:space="preserve" font-family="Helvetica-Bold,Helvetica" font-weight="bold" font-size="44.8" fill="#000000" transform="matrix(1.00, 0.00, -0.00, -1.00, 623.9, 686.3)">r</text></g></svg>