<?xml version="1.0" encoding="UTF-8" standalone="no"?><svg xmlns="http://www.w3.org/2000/svg" xmlns:xlink="http://www.w3.org/1999/xlink" clip-rule="evenodd" stroke-miterlimit="10" viewBox="0 0 1024 768"><desc>SVG generated by Keynote</desc><defs></defs><g transform="matrix(1.00, 0.00, -0.00, -1.00, 0.0, 768.0)"><path d="M 0.0 768.0 L 1024.0 768.0 L 1024.0 0.0 L 0.0 0.0 Z M 0.0 768.0 " fill="#FEFFFF"></path><image xlink:href="../../D6B8E054-278E-4045-BDF8-AB56A32A7E45/assets/12EEAE0BC5447B366D3774D15A8C1F67.png" width="2880.00" height="1104.00" transform="matrix(0.36, 0.00, -0.00, -0.36, 0.0, 599.3)"></image><text xml:space="preserve" font-family="Helvetica-Bold,Helvetica" font-weight="bold" font-size="44.8" fill="#000000" transform="matrix(1.00, 0.00, -0.00, -1.00, 427.4, 686.3)">C</text><text xml:space="preserve" font-family="Helvetica-Bold,Helvetica" font-weight="bold" font-size="44.8" fill="#000000" transform="matrix(1.00, 0.00, -0.00, -1.00, 459.8, 686.3)">o</text><text xml:space="preserve" font-family="Helvetica-Bold,Helvetica" font-weight="bold" font-size="44.8" fill="#000000" transform="matrix(1.00, 0.00, -0.00, -1.00, 487.1, 686.3)">n</text><text xml:space="preserve" font-family="Helvetica-Bold,Helvetica" font-weight="bold" font-size="44.8" fill="#000000" transform="matrix(1.00, 0.00, -0.00, -1.00, 514.5, 686.3)">t</text><text xml:space="preserve" font-family="Helvetica-Bold,Helvetica" font-weight="bold" font-size="44.8" fill="#000000" transform="matrix(1.00, 0.00, -0.00, -1.00, 529.4, 686.3)">e</text><text xml:space="preserve" font-family="Helvetica-Bold,Helvetica" font-weight="bold" font-size="44.8" fill="#000000" transform="matrix(1.00, 0.00, -0.00, -1.00, 554.3, 686.3)">n</text><text xml:space="preserve" font-family="Helvetica-Bold,Helvetica" font-weight="bold" font-size="44.8" fill="#000000" transform="matrix(1.00, 0.00, -0.00, -1.00, 581.7, 686.3)">t</text></g></svg>