<?xml version="1.0" encoding="UTF-8" standalone="no"?><svg xmlns="http://www.w3.org/2000/svg" xmlns:xlink="http://www.w3.org/1999/xlink" clip-rule="evenodd" stroke-miterlimit="10" viewBox="0 0 1024 768"><desc>SVG generated by Keynote</desc><defs></defs><g transform="matrix(1.00, 0.00, -0.00, -1.00, 0.0, 768.0)"><path d="M 0.0 768.0 L 1024.0 768.0 L 1024.0 0.0 L 0.0 0.0 Z M 0.0 768.0 " fill="#FEFFFF"></path><image xlink:href="93979EEF6FFEF886A91571C54FC0DFE7.png" width="2324.00" height="1394.00" transform="matrix(0.43, 0.00, -0.00, -0.43, 10.3, 664.1)"></image><text xml:space="preserve" font-family="Helvetica-Bold,Helvetica" font-weight="bold" font-size="44.8" fill="#000000" transform="matrix(1.00, 0.00, -0.00, -1.00, 310.3, 686.3)">D</text><text xml:space="preserve" font-family="Helvetica-Bold,Helvetica" font-weight="bold" font-size="44.8" fill="#000000" transform="matrix(1.00, 0.00, -0.00, -1.00, 342.7, 686.3)">a</text><text xml:space="preserve" font-family="Helvetica-Bold,Helvetica" font-weight="bold" font-size="44.8" fill="#000000" transform="matrix(1.00, 0.00, -0.00, -1.00, 367.6, 686.3)">i</text><text xml:space="preserve" font-family="Helvetica-Bold,Helvetica" font-weight="bold" font-size="44.8" fill="#000000" transform="matrix(1.00, 0.00, -0.00, -1.00, 380.0, 686.3)">l</text><text xml:space="preserve" font-family="Helvetica-Bold,Helvetica" font-weight="bold" font-size="44.8" fill="#000000" transform="matrix(1.00, 0.00, -0.00, -1.00, 392.5, 686.3)">y</text><text xml:space="preserve" font-family="Helvetica-Bold,Helvetica" font-weight="bold" font-size="44.8" fill="#000000" transform="matrix(1.00, 0.00, -0.00, -1.00, 417.4, 686.3)"> </text><text xml:space="preserve" font-family="Helvetica-Bold,Helvetica" font-weight="bold" font-size="44.8" fill="#000000" transform="matrix(1.00, 0.00, -0.00, -1.00, 429.8, 686.3)">C</text><text xml:space="preserve" font-family="Helvetica-Bold,Helvetica" font-weight="bold" font-size="44.8" fill="#000000" transform="matrix(1.00, 0.00, -0.00, -1.00, 462.2, 686.3)">r</text><text xml:space="preserve" font-family="Helvetica-Bold,Helvetica" font-weight="bold" font-size="44.8" fill="#000000" transform="matrix(1.00, 0.00, -0.00, -1.00, 479.7, 686.3)">a</text><text xml:space="preserve" font-family="Helvetica-Bold,Helvetica" font-weight="bold" font-size="44.8" fill="#000000" transform="matrix(1.00, 0.00, -0.00, -1.00, 504.6, 686.3)">w</text><text xml:space="preserve" font-family="Helvetica-Bold,Helvetica" font-weight="bold" font-size="44.8" fill="#000000" transform="matrix(1.00, 0.00, -0.00, -1.00, 539.4, 686.3)">l</text><text xml:space="preserve" font-family="Helvetica-Bold,Helvetica" font-weight="bold" font-size="44.8" fill="#000000" transform="matrix(1.00, 0.00, -0.00, -1.00, 551.9, 686.3)">e</text><text xml:space="preserve" font-family="Helvetica-Bold,Helvetica" font-weight="bold" font-size="44.8" fill="#000000" transform="matrix(1.00, 0.00, -0.00, -1.00, 576.8, 686.3)">d</text><text xml:space="preserve" font-family="Helvetica-Bold,Helvetica" font-weight="bold" font-size="44.8" fill="#000000" transform="matrix(1.00, 0.00, -0.00, -1.00, 604.1, 686.3)"> </text><text xml:space="preserve" font-family="Helvetica-Bold,Helvetica" font-weight="bold" font-size="44.8" fill="#000000" transform="matrix(1.00, 0.00, -0.00, -1.00, 616.6, 686.3)">D</text><text xml:space="preserve" font-family="Helvetica-Bold,Helvetica" font-weight="bold" font-size="44.8" fill="#000000" transform="matrix(1.00, 0.00, -0.00, -1.00, 648.9, 686.3)">a</text><text xml:space="preserve" font-family="Helvetica-Bold,Helvetica" font-weight="bold" font-size="44.8" fill="#000000" transform="matrix(1.00, 0.00, -0.00, -1.00, 673.9, 686.3)">t</text><text xml:space="preserve" font-family="Helvetica-Bold,Helvetica" font-weight="bold" font-size="44.8" fill="#000000" transform="matrix(1.00, 0.00, -0.00, -1.00, 688.8, 686.3)">a</text></g></svg>